<svg xmlns="http://www.w3.org/2000/svg" width="16.02" height="16.02" viewBox="0 0 16.02 16.02">
  <g id="Icon_feather-image" data-name="Icon feather-image" transform="translate(0.5 0.5)">
    <path id="パス_358" data-name="パス 358" d="M6.146,4.5H17.667a1.646,1.646,0,0,1,1.646,1.646V17.667a1.646,1.646,0,0,1-1.646,1.646H6.146A1.646,1.646,0,0,1,4.5,17.667V6.146A1.646,1.646,0,0,1,6.146,4.5Z" transform="translate(-4.5 -4.5)" fill="none" stroke="#fff" stroke-linecap="round" stroke-linejoin="round" stroke-width="1"/>
    <path id="パス_359" data-name="パス 359" d="M12.969,11.734A1.234,1.234,0,1,1,11.734,10.5,1.234,1.234,0,0,1,12.969,11.734Z" transform="translate(-7.208 -7.208)" fill="none" stroke="#fff" stroke-linecap="round" stroke-linejoin="round" stroke-width="1"/>
    <path id="パス_360" data-name="パス 360" d="M20.667,19.115,16.552,15,7.5,24.052" transform="translate(-5.854 -9.239)" fill="none" stroke="#fff" stroke-linecap="round" stroke-linejoin="round" stroke-width="1"/>
  </g>
</svg>
